<mxfile host="app.diagrams.net" modified="2022-03-29T13:08:26.593Z" agent="5.0 (Windows NT 10.0; Win64; x64) AppleWebKit/537.36 (KHTML, like Gecko) Chrome/99.0.4844.82 Safari/537.36" etag="PGHWgVm3qUyjhZhVQfYh" version="17.2.4" type="github">
  <diagram id="C5RBs43oDa-KdzZeNtuy" name="Page-1">
    <mxGraphModel dx="920" dy="567" grid="1" gridSize="10" guides="1" tooltips="1" connect="1" arrows="1" fold="1" page="1" pageScale="1" pageWidth="827" pageHeight="1169" math="0" shadow="0">
      <root>
        <mxCell id="WIyWlLk6GJQsqaUBKTNV-0" />
        <mxCell id="WIyWlLk6GJQsqaUBKTNV-1" parent="WIyWlLk6GJQsqaUBKTNV-0" />
        <mxCell id="Re24QMPTCdzhNl0H0kzx-20" value="" style="verticalLabelPosition=bottom;verticalAlign=top;html=1;shape=mxgraph.basic.rect;fillColor2=none;strokeWidth=1;size=20;indent=5;rounded=0;glass=0;" vertex="1" parent="WIyWlLk6GJQsqaUBKTNV-1">
          <mxGeometry x="40" y="20" width="760" height="230" as="geometry" />
        </mxCell>
        <mxCell id="Re24QMPTCdzhNl0H0kzx-14" value="Vulnerable Function Existence &#xa;Version Calculation" style="text;strokeColor=none;fillColor=#030303;align=center;verticalAlign=middle;spacingLeft=4;spacingRight=4;overflow=hidden;points=[[0,0.5],[1,0.5]];portConstraint=eastwest;rotatable=0;rounded=0;shadow=0;glass=0;dashed=1;sketch=0;labelBackgroundColor=#030303;fontColor=#FFFFFF;fontSize=15;" vertex="1" parent="WIyWlLk6GJQsqaUBKTNV-1">
          <mxGeometry x="60" y="30" width="240" height="40" as="geometry" />
        </mxCell>
        <mxCell id="Re24QMPTCdzhNl0H0kzx-15" value="Similarity To&lt;br style=&quot;font-size: 14px;&quot;&gt;Pre-patch Function" style="rounded=1;whiteSpace=wrap;html=1;absoluteArcSize=1;arcSize=14;strokeWidth=2;shadow=0;glass=0;sketch=0;dashed=1;fontSize=14;" vertex="1" parent="WIyWlLk6GJQsqaUBKTNV-1">
          <mxGeometry x="70" y="85" width="110" height="60" as="geometry" />
        </mxCell>
        <mxCell id="Re24QMPTCdzhNl0H0kzx-18" value="Merge&amp;nbsp;&lt;br style=&quot;font-size: 14px;&quot;&gt;Branchâ€˜s&lt;br style=&quot;font-size: 14px;&quot;&gt;Results" style="rounded=1;whiteSpace=wrap;html=1;absoluteArcSize=1;arcSize=14;strokeWidth=2;shadow=0;glass=0;sketch=0;dashed=1;fontSize=14;" vertex="1" parent="WIyWlLk6GJQsqaUBKTNV-1">
          <mxGeometry x="460" y="80" width="70" height="150" as="geometry" />
        </mxCell>
        <mxCell id="Re24QMPTCdzhNl0H0kzx-19" value="" style="html=1;shadow=0;dashed=0;align=center;verticalAlign=middle;shape=mxgraph.arrows2.arrow;dy=0.56;dx=16.67;direction=south;notch=0;rounded=0;glass=0;rotation=-90;labelBackgroundColor=#080808;labelBorderColor=default;fillColor=#030303;" vertex="1" parent="WIyWlLk6GJQsqaUBKTNV-1">
          <mxGeometry x="540" y="140" width="33.5" height="30" as="geometry" />
        </mxCell>
        <mxCell id="Re24QMPTCdzhNl0H0kzx-21" value="Branch Management &#xa;Processing" style="text;strokeColor=none;fillColor=#030303;align=center;verticalAlign=middle;spacingLeft=4;spacingRight=4;overflow=hidden;points=[[0,0.5],[1,0.5]];portConstraint=eastwest;rotatable=0;rounded=0;shadow=0;glass=0;dashed=1;sketch=0;labelBackgroundColor=#030303;fontColor=#FFFFFF;fontSize=15;" vertex="1" parent="WIyWlLk6GJQsqaUBKTNV-1">
          <mxGeometry x="341" y="30" width="189" height="40" as="geometry" />
        </mxCell>
        <mxCell id="Re24QMPTCdzhNl0H0kzx-22" value="CVE Existence Vulnerability &#xa;Version Calculation" style="text;strokeColor=none;fillColor=#030303;align=center;verticalAlign=middle;spacingLeft=4;spacingRight=4;overflow=hidden;points=[[0,0.5],[1,0.5]];portConstraint=eastwest;rotatable=0;rounded=0;shadow=0;glass=0;dashed=1;sketch=0;labelBackgroundColor=#030303;fontColor=#FFFFFF;fontSize=15;" vertex="1" parent="WIyWlLk6GJQsqaUBKTNV-1">
          <mxGeometry x="580" y="30" width="210" height="40" as="geometry" />
        </mxCell>
        <mxCell id="Re24QMPTCdzhNl0H0kzx-24" value="" style="html=1;shadow=0;dashed=0;align=center;verticalAlign=middle;shape=mxgraph.arrows2.arrow;dy=0.56;dx=16.67;direction=south;notch=0;rounded=0;glass=0;rotation=-90;labelBackgroundColor=#080808;labelBorderColor=default;fillColor=#030303;" vertex="1" parent="WIyWlLk6GJQsqaUBKTNV-1">
          <mxGeometry x="294" y="145" width="33.5" height="30" as="geometry" />
        </mxCell>
        <mxCell id="Re24QMPTCdzhNl0H0kzx-27" value="Remove&lt;br style=&quot;font-size: 14px;&quot;&gt;Useless&lt;br style=&quot;font-size: 14px;&quot;&gt;PFInfos" style="rounded=1;whiteSpace=wrap;html=1;absoluteArcSize=1;arcSize=14;strokeWidth=2;shadow=0;glass=0;sketch=0;dashed=1;fontSize=14;" vertex="1" parent="WIyWlLk6GJQsqaUBKTNV-1">
          <mxGeometry x="580" y="80" width="60" height="150" as="geometry" />
        </mxCell>
        <mxCell id="Re24QMPTCdzhNl0H0kzx-29" value="Similarity To&lt;br style=&quot;font-size: 14px;&quot;&gt;Post-patch Fuction" style="rounded=1;whiteSpace=wrap;html=1;absoluteArcSize=1;arcSize=14;strokeWidth=2;shadow=0;glass=0;sketch=0;dashed=1;fontSize=14;" vertex="1" parent="WIyWlLk6GJQsqaUBKTNV-1">
          <mxGeometry x="70" y="170" width="110" height="60" as="geometry" />
        </mxCell>
        <mxCell id="Re24QMPTCdzhNl0H0kzx-31" value="&lt;span style=&quot;font-size: 14px;&quot;&gt;Computational vulnerability version&lt;/span&gt;" style="rounded=1;whiteSpace=wrap;html=1;absoluteArcSize=1;arcSize=14;strokeWidth=2;shadow=0;glass=0;sketch=0;dashed=1;fontSize=14;" vertex="1" parent="WIyWlLk6GJQsqaUBKTNV-1">
          <mxGeometry x="690" y="80" width="100" height="150" as="geometry" />
        </mxCell>
        <mxCell id="Re24QMPTCdzhNl0H0kzx-32" value="Separately Different&lt;br style=&quot;font-size: 14px;&quot;&gt;Branch" style="rounded=1;whiteSpace=wrap;html=1;absoluteArcSize=1;arcSize=14;strokeWidth=2;shadow=0;glass=0;sketch=0;dashed=1;verticalAlign=middle;fontSize=14;" vertex="1" parent="WIyWlLk6GJQsqaUBKTNV-1">
          <mxGeometry x="330" y="80" width="80" height="150" as="geometry" />
        </mxCell>
        <mxCell id="Re24QMPTCdzhNl0H0kzx-33" value="Function&amp;nbsp;&lt;br style=&quot;font-size: 14px;&quot;&gt;Vulnerable&lt;br style=&quot;font-size: 14px;&quot;&gt;Determination" style="rounded=1;whiteSpace=wrap;html=1;absoluteArcSize=1;arcSize=14;strokeWidth=2;shadow=0;glass=0;sketch=0;dashed=1;verticalAlign=middle;fontSize=14;" vertex="1" parent="WIyWlLk6GJQsqaUBKTNV-1">
          <mxGeometry x="200" y="80" width="94" height="150" as="geometry" />
        </mxCell>
        <mxCell id="Re24QMPTCdzhNl0H0kzx-34" value="" style="html=1;shadow=0;dashed=0;align=center;verticalAlign=middle;shape=mxgraph.arrows2.arrow;dy=0.56;dx=16.67;direction=south;notch=0;rounded=0;glass=0;rotation=-90;labelBackgroundColor=#080808;labelBorderColor=default;fillColor=#030303;" vertex="1" parent="WIyWlLk6GJQsqaUBKTNV-1">
          <mxGeometry x="650" y="140" width="33.5" height="30" as="geometry" />
        </mxCell>
        <mxCell id="Re24QMPTCdzhNl0H0kzx-36" value="" style="html=1;shadow=0;dashed=0;align=center;verticalAlign=middle;shape=mxgraph.arrows2.arrow;dy=0.56;dx=16.67;direction=south;notch=0;rounded=0;glass=0;rotation=-90;labelBackgroundColor=#080808;labelBorderColor=default;fillColor=#030303;" vertex="1" parent="WIyWlLk6GJQsqaUBKTNV-1">
          <mxGeometry x="418.75" y="145" width="33.5" height="30" as="geometry" />
        </mxCell>
      </root>
    </mxGraphModel>
  </diagram>
</mxfile>
